<svg xmlns="http://www.w3.org/2000/svg" width="24.75" height="24.75" viewBox="0 0 24.75 24.75"><defs><style>.a{fill:red;}</style></defs><g transform="translate(-3.375 -3.375)"><path class="a" d="M21.612,20.267l-3.135-3.135L21.612,14a.951.951,0,0,0-1.345-1.345l-3.135,3.135L14,12.651A.951.951,0,0,0,12.652,14l3.135,3.135-3.135,3.135a.919.919,0,0,0,0,1.345.944.944,0,0,0,1.345,0l3.135-3.135,3.135,3.135a.955.955,0,0,0,1.345,0A.944.944,0,0,0,21.612,20.267Z" transform="translate(-1.382 -1.381)"/><path class="a" d="M15.75,5.041A10.7,10.7,0,1,1,8.176,8.176,10.638,10.638,0,0,1,15.75,5.041m0-1.666A12.375,12.375,0,1,0,28.125,15.75,12.373,12.373,0,0,0,15.75,3.375Z"/></g></svg>