<svg xmlns="http://www.w3.org/2000/svg" width="49.729" height="64" viewBox="0 0 49.729 64"><defs><style>.a{fill:#fff;}</style></defs><g transform="translate(-57.084)"><g transform="translate(57.084 0)"><path class="a" d="M358.385,294.6a.937.937,0,0,0-.937.938v.361c0,5.659-1.922,10.473-5.558,13.922a.938.938,0,0,0,1.291,1.36c4.018-3.812,6.142-9.1,6.142-15.282v-.361A.938.938,0,0,0,358.385,294.6Z" transform="translate(-314.784 -257.779)"/><path class="a" d="M354.045,83.769a.937.937,0,1,0-1.3,1.349A17.683,17.683,0,0,1,358.2,97.932v8.516a.938.938,0,0,0,1.875,0V97.932a19.545,19.545,0,0,0-6.029-14.163Z" transform="translate(-315.535 -73.067)"/><path class="a" d="M165.008,46.573a17.533,17.533,0,0,1,9.977-3.179h.107a17.724,17.724,0,0,1,9.03,2.459.937.937,0,0,0,.956-1.613,19.6,19.6,0,0,0-9.986-2.721h-.116a19.4,19.4,0,0,0-11.043,3.517.938.938,0,0,0,1.074,1.537Z" transform="translate(-150.227 -36.328)"/><path class="a" d="M103.216,129.692a17.728,17.728,0,0,1-2.74-9.481V106.12a18.043,18.043,0,0,1,4.485-11.907.937.937,0,1,0-1.409-1.237A19.917,19.917,0,0,0,98.6,106.12V120.21a19.6,19.6,0,0,0,3.03,10.483c.175.278.36.555.549.823a.937.937,0,1,0,1.533-1.079C103.542,130.194,103.375,129.943,103.216,129.692Z" transform="translate(-93.411 -81.075)"/><path class="a" d="M161.275,181.915a2.966,2.966,0,0,1-1.643-2.658V165.091a3.042,3.042,0,0,1,2.915-3.077,2.973,2.973,0,0,1,3.027,2.971v11.539a.937.937,0,1,0,1.875,0c0-.013,0-11.518,0-11.539a4.85,4.85,0,0,0-4.941-4.846,4.925,4.925,0,0,0-4.753,4.951v14.166a4.831,4.831,0,0,0,2.673,4.332,6.476,6.476,0,1,1-5.769,11.6,17.876,17.876,0,0,1-3.84-2.6.938.938,0,1,0-1.242,1.4,19.749,19.749,0,0,0,4.244,2.868,8.351,8.351,0,1,0,7.453-14.947Z" transform="translate(-137.74 -140.121)"/><path class="a" d="M137.283,262.348a.937.937,0,0,0-.937.938v5.4a14.9,14.9,0,0,0,8.286,13.385.937.937,0,1,0,.839-1.677,13.033,13.033,0,0,1-7.251-11.709v-5.4A.937.937,0,0,0,137.283,262.348Z" transform="translate(-126.437 -229.555)"/><path class="a" d="M299.277,144.631a.937.937,0,0,0-.045,1.325,7.65,7.65,0,0,1,2.065,5.24v14.572a.938.938,0,0,0,1.875,0V151.2a9.519,9.519,0,0,0-2.57-6.52A.938.938,0,0,0,299.277,144.631Z" transform="translate(-268.742 -126.331)"/><path class="a" d="M191.37,124.63a.938.938,0,0,0,.565-1.788,9.572,9.572,0,0,0-12.456,9.225v14.166a.938.938,0,0,0,1.875,0V132.068a7.7,7.7,0,0,1,10.015-7.438Z" transform="translate(-164.18 -107.098)"/><path class="a" d="M190.137,341.94a.938.938,0,0,0-.306,1.29,9.588,9.588,0,0,0,3.85,3.525.937.937,0,1,0,.845-1.674,7.714,7.714,0,0,1-3.1-2.835A.938.938,0,0,0,190.137,341.94Z" transform="translate(-173.116 -299.076)"/><path class="a" d="M256.613,301.651a.938.938,0,1,0-.912,1.638,11.258,11.258,0,0,1,5.315,13.065,11.076,11.076,0,0,1-1.554,3.2A.937.937,0,0,0,261,320.637a12.942,12.942,0,0,0,1.817-3.746,13.133,13.133,0,0,0-6.2-15.241Z" transform="translate(-230.452 -263.841)"/><path class="a" d="M163.417,116.857a18.24,18.24,0,0,0,2.841-9.727V94.218a15.162,15.162,0,0,0-4.417-10.6A14.858,14.858,0,0,0,151.3,79.261h-.088A15.083,15.083,0,0,0,136.345,94.4v4.3a.938.938,0,0,0,1.875,0V94.4a13.2,13.2,0,0,1,13.008-13.262h.074a13.1,13.1,0,0,1,13.081,13.082V107.13a16.367,16.367,0,0,1-2.553,8.728.938.938,0,0,0,1.586,1Z" transform="translate(-126.437 -69.353)"/><path class="a" d="M248.5,209.357v4.687a.938.938,0,0,0,1.875,0v-4.687a.938.938,0,0,0-1.875,0Z" transform="translate(-224.573 -182.367)"/><path class="a" d="M81.948,0A24.893,24.893,0,0,0,57.084,24.864V39.135a24.864,24.864,0,1,0,49.729,0V24.864A24.893,24.893,0,0,0,81.948,0Zm22.989,39.135a22.989,22.989,0,1,1-45.979,0V24.864a22.989,22.989,0,1,1,45.979,0Z" transform="translate(-57.084 0)"/></g></g></svg>