<svg xmlns="http://www.w3.org/2000/svg" width="21.754" height="24.76" viewBox="0 0 21.754 24.76"><defs><style>.a{fill:#2291ff;}</style></defs><g transform="translate(-5.536)"><path class="a" d="M12.95,3.463a3.463,3.463,0,1,1,3.463,3.463A3.463,3.463,0,0,1,12.95,3.463Zm5.127,5.822a3.75,3.75,0,0,1,.712-2.029,4.419,4.419,0,0,0-.907-.094H14.944a4.427,4.427,0,0,0-.9.093,3.757,3.757,0,0,1,.715,2.184,3.778,3.778,0,0,1,3.322-.154Zm.586.311a3.953,3.953,0,0,1,1.84,2.937A3.189,3.189,0,1,0,18.664,9.6Zm-2.09,6.533a3.19,3.19,0,1,0-3.191-3.191A3.191,3.191,0,0,0,16.573,16.128Zm1.353.217H15.219a4.09,4.09,0,0,0-4.085,4.085v3.311l.008.052.228.072a18.6,18.6,0,0,0,5.554.9,11.4,11.4,0,0,0,4.85-.911l.213-.108h.023V20.43A4.089,4.089,0,0,0,17.927,16.345Zm5.279-3.293H20.519a3.932,3.932,0,0,1-1.214,2.739,4.854,4.854,0,0,1,3.467,4.645v1.02a11,11,0,0,0,4.282-.9l.213-.108h.023V17.136A4.089,4.089,0,0,0,23.205,13.052Zm-12.23-.218a3.169,3.169,0,0,0,1.7-.492,3.948,3.948,0,0,1,1.484-2.518c0-.06.009-.119.009-.179a3.19,3.19,0,1,0-3.19,3.19ZM13.84,15.79a3.935,3.935,0,0,1-1.213-2.723c-.1-.007-.2-.015-.3-.015H9.621a4.09,4.09,0,0,0-4.085,4.085v3.311l.008.051.228.072a19.154,19.154,0,0,0,4.6.865v-1A4.854,4.854,0,0,1,13.84,15.79Z"/></g></svg>