<svg xmlns="http://www.w3.org/2000/svg" width="22.412" height="22.412" viewBox="0 0 22.412 22.412"><defs><style>.a{fill:none;stroke:#2291ff;stroke-linecap:round;stroke-linejoin:round;stroke-width:2px;}</style></defs><g transform="translate(-3.5 -3.5)"><path class="a" d="M6.722,4.5H22.278A2.222,2.222,0,0,1,24.5,6.722V22.278A2.222,2.222,0,0,1,22.278,24.5H6.722A2.222,2.222,0,0,1,4.5,22.278V6.722A2.222,2.222,0,0,1,6.722,4.5Z"/><path class="a" d="M14.205,12.353A1.853,1.853,0,1,1,12.353,10.5,1.853,1.853,0,0,1,14.205,12.353Z" transform="translate(-1.655 -1.655)"/><path class="a" d="M25.03,21.176,19.552,15,7.5,28.587" transform="translate(-0.53 -4.087)"/></g></svg>