<svg xmlns="http://www.w3.org/2000/svg" width="16.929" height="9.875" viewBox="0 0 16.929 9.875"><defs><style>.a{fill:#608795;}</style></defs><g transform="translate(-4.5 -10.125)"><path class="a" d="M20.723,11.536H5.205A.707.707,0,0,1,4.5,10.83h0a.707.707,0,0,1,.705-.705H20.723a.707.707,0,0,1,.705.705h0A.707.707,0,0,1,20.723,11.536Z"/><path class="a" d="M20.723,18.286H5.205A.707.707,0,0,1,4.5,17.58h0a.707.707,0,0,1,.705-.705H20.723a.707.707,0,0,1,.705.705h0A.707.707,0,0,1,20.723,18.286Z" transform="translate(0 -2.518)"/><path class="a" d="M20.723,25.036H5.205A.707.707,0,0,1,4.5,24.33h0a.707.707,0,0,1,.705-.705H20.723a.707.707,0,0,1,.705.705h0A.707.707,0,0,1,20.723,25.036Z" transform="translate(0 -5.036)"/></g></svg>