<svg xmlns="http://www.w3.org/2000/svg" width="20" height="25.015" viewBox="0 0 20 25.015"><defs><style>.a{fill:#2291ff;}</style></defs><g transform="translate(-6.761 -3.93)"><path class="a" d="M17.617,31.65c1.944,0,3.007-1.375,3.007-3.314H14.6C14.6,30.274,15.667,31.65,17.617,31.65Z" transform="translate(-0.869 -2.705)"/><path class="a" d="M26.508,22.455c-.963-1.269-2.857-2.013-2.857-7.7,0-5.833-2.576-8.178-4.977-8.74-.225-.056-.388-.131-.388-.369V5.468a1.526,1.526,0,1,0-3.051,0V5.65c0,.231-.163.313-.388.369-2.407.569-4.977,2.907-4.977,8.74,0,5.683-1.894,6.421-2.857,7.7a1.241,1.241,0,0,0,.994,1.988H25.52A1.241,1.241,0,0,0,26.508,22.455Z" transform="translate(0 0)"/></g></svg>